<svg width="250" height="250" viewBox="0 0 250 250" fill="none" xmlns="http://www.w3.org/2000/svg">
<g clip-path="url(#clip0_5_2)">
<rect x="25" y="25" width="200" height="200" rx="100" fill="#FFA53C"/>
<path d="M125 172.736C116.792 172.736 109.016 170.36 102.752 165.824C101.672 164.96 101.456 163.664 102.32 162.584C103.184 161.504 104.48 161.288 105.56 162.152C110.96 166.256 117.872 168.2 125 168.2C132.128 168.2 138.824 166.04 144.44 162.152C145.52 161.288 147.032 161.72 147.68 162.584C148.544 163.664 148.112 165.176 147.248 165.824C140.984 170.36 133.208 172.736 125 172.736Z" fill="#1C1C1C"/>
<path d="M125 180.512C115.928 180.512 108.584 178.352 102.752 174.032C101.672 173.168 101.456 171.872 102.32 170.792C103.184 169.712 104.48 169.496 105.56 170.36C110.744 174.032 117.008 175.76 125 175.76C132.992 175.76 139.256 174.032 144.44 170.36C145.52 169.496 147.032 169.928 147.68 170.792C148.544 171.872 148.112 173.384 147.248 174.032C141.416 178.352 134.072 180.512 125 180.512Z" fill="#1C1C1C"/>
<path d="M147.68 179.216C146.816 178.136 145.52 177.92 144.44 178.784C138.608 182.888 131.264 183.536 125 183.536C118.736 183.536 111.392 182.888 105.56 178.568C104.48 177.704 102.968 178.136 102.32 179C101.456 180.08 101.888 181.592 102.752 182.24C106.856 185.264 111.608 186.776 116.144 187.424C116.792 191.744 120.464 195.2 125 195.2C129.536 195.2 133.208 191.744 133.856 187.424C138.392 186.776 142.928 185.264 147.032 182.24C148.328 181.808 148.544 180.296 147.68 179.216ZM125 190.664C123.272 190.664 121.76 189.584 121.112 188.072C122.408 188.072 123.704 188.072 125 188.072C126.296 188.072 127.592 188.072 128.888 188.072C128.24 189.584 126.944 190.664 125 190.664Z" fill="#1C1C1C"/>
<path d="M95.408 68.624C94.976 68.624 94.328 68.408 93.896 68.192C92.816 67.328 92.6 65.816 93.464 64.952C99.944 56.744 107.288 52.208 116.792 50.48C118.088 50.264 119.384 51.128 119.6 52.424C119.816 53.72 118.952 55.016 117.656 55.232C109.448 56.744 102.968 60.632 97.136 67.976C96.92 68.192 96.272 68.624 95.408 68.624Z" fill="#1C1C1C"/>
<path d="M160.424 55.232C151.568 45.728 138.824 40.544 125 40.544C110.96 40.544 98.432 45.728 89.576 55.232C80.936 64.304 76.184 77.048 76.184 90.656C76.184 107.504 83.744 118.52 90.44 128.024C95.624 135.584 100.376 142.064 100.376 150.272C100.376 154.592 103.616 158.264 109.88 161.072C114.416 163.016 120.248 164.312 125 164.312C129.752 164.312 135.584 163.016 140.12 161.072C146.384 158.48 149.624 154.592 149.624 150.272C149.624 142.064 154.16 135.584 159.56 128.024C166.256 118.304 173.816 107.504 173.816 90.656C173.816 76.832 169.064 64.304 160.424 55.232ZM155.672 125.648C150.272 133.64 144.872 140.984 144.872 150.704C144.872 153.944 140.12 156.32 138.176 157.184C134.288 158.912 128.888 159.992 125 159.992C121.112 159.992 115.712 158.912 111.824 157.184C109.88 156.32 105.128 153.944 105.128 150.704C105.128 141.2 99.944 133.64 94.328 125.648C87.632 116.144 80.936 106.424 80.936 90.872C80.936 78.344 85.256 66.896 93.032 58.688C101.24 50.048 112.256 45.512 125.216 45.512C137.744 45.512 148.76 49.832 156.752 58.256L155.024 66.896L148.112 63.44C147.464 63.008 146.6 63.224 145.952 63.656C145.304 64.088 144.872 64.736 144.872 65.6L144.224 77.264L136.448 77.696C135.584 77.696 134.936 78.344 134.504 78.992L127.16 93.248C126.512 94.328 127.16 95.84 128.24 96.272C128.456 96.488 128.888 96.488 129.32 96.488C130.184 96.488 131.048 96.056 131.48 95.192L137.744 81.8L146.168 81.152C147.248 81.152 148.328 80.072 148.328 78.992L148.976 68.84L155.456 71.864C156.104 72.08 156.968 72.08 157.4 71.864C157.832 71.648 158.48 71 158.696 70.136L160.208 62.36C165.824 70.136 169.064 79.856 169.064 90.44C169.28 105.992 162.368 115.928 155.672 125.648Z" fill="#1C1C1C"/>
</g>
<defs>
<clipPath id="clip0_5_2">
<rect width="250" height="250" fill="white"/>
</clipPath>
</defs>
</svg>
