<svg width="1061" height="214" viewBox="0 0 1061 214" fill="none" xmlns="http://www.w3.org/2000/svg">
<g clip-path="url(#clip0_2_2)">
<path d="M370 125.625C370 128.833 369.583 131.729 368.75 134.312C367.958 136.854 366.896 139.104 365.562 141.062C364.229 143.021 362.667 144.688 360.875 146.062C359.083 147.438 357.229 148.562 355.312 149.438C353.396 150.312 351.438 150.958 349.438 151.375C347.479 151.792 345.625 152 343.875 152H281.188V135.75H343.875C347 135.75 349.417 134.833 351.125 133C352.875 131.167 353.75 128.708 353.75 125.625C353.75 124.125 353.521 122.75 353.062 121.5C352.604 120.25 351.938 119.167 351.062 118.25C350.229 117.333 349.188 116.625 347.938 116.125C346.729 115.625 345.375 115.375 343.875 115.375H306.5C303.875 115.375 301.042 114.917 298 114C294.958 113.042 292.125 111.521 289.5 109.438C286.917 107.354 284.75 104.625 283 101.25C281.292 97.875 280.438 93.75 280.438 88.875C280.438 84 281.292 79.8958 283 76.5625C284.75 73.1875 286.917 70.4583 289.5 68.375C292.125 66.25 294.958 64.7292 298 63.8125C301.042 62.8542 303.875 62.375 306.5 62.375H361.812V78.625H306.5C303.417 78.625 301 79.5625 299.25 81.4375C297.542 83.3125 296.688 85.7917 296.688 88.875C296.688 92 297.542 94.4792 299.25 96.3125C301 98.1042 303.417 99 306.5 99H343.875H344C345.75 99.0417 347.604 99.2917 349.562 99.75C351.521 100.167 353.458 100.833 355.375 101.75C357.333 102.667 359.188 103.833 360.938 105.25C362.688 106.625 364.229 108.292 365.562 110.25C366.938 112.208 368.021 114.458 368.812 117C369.604 119.542 370 122.417 370 125.625ZM447.125 152H403.062C400.812 152 398.354 151.604 395.688 150.812C393.021 150.021 390.542 148.729 388.25 146.938C386 145.104 384.104 142.75 382.562 139.875C381.062 136.958 380.312 133.396 380.312 129.188V107.188C380.312 105.646 380.479 104.021 380.812 102.312C381.188 100.604 381.75 98.9167 382.5 97.25C383.25 95.5417 384.208 93.9167 385.375 92.375C386.583 90.8333 388.021 89.4792 389.688 88.3125C391.396 87.1458 393.354 86.2083 395.562 85.5C397.771 84.7917 400.271 84.4375 403.062 84.4375H447.125V100.688H403.062C400.938 100.688 399.312 101.229 398.188 102.312C397.104 103.396 396.562 105.062 396.562 107.312V129.188C396.562 131.312 397.125 132.938 398.25 134.062C399.375 135.188 401.021 135.75 403.188 135.75H447.125V152ZM519.688 100.688H483.125C480.917 100.688 479.25 101.25 478.125 102.375C477 103.458 476.438 105.062 476.438 107.188V152H460.188V107.188C460.188 104.396 460.542 101.896 461.25 99.6875C461.958 97.4792 462.896 95.5417 464.062 93.875C465.271 92.1667 466.646 90.7292 468.188 89.5625C469.729 88.3542 471.333 87.375 473 86.625C474.708 85.875 476.417 85.3333 478.125 85C479.875 84.625 481.5 84.4375 483 84.4375H519.688V100.688ZM594.938 129.625C594.938 131.875 594.542 134.312 593.75 136.938C592.958 139.521 591.667 141.938 589.875 144.188C588.125 146.396 585.812 148.25 582.938 149.75C580.104 151.25 576.646 152 572.562 152H543.25C541 152 538.562 151.604 535.938 150.812C533.354 150.021 530.938 148.75 528.688 147C526.479 145.208 524.625 142.896 523.125 140.062C521.625 137.188 520.875 133.708 520.875 129.625C520.875 127.375 521.271 124.938 522.062 122.312C522.854 119.688 524.125 117.271 525.875 115.062C527.667 112.812 529.979 110.938 532.812 109.438C535.688 107.938 539.167 107.188 543.25 107.188H572.562V122.688H543.25C541.042 122.688 539.333 123.375 538.125 124.75C536.917 126.083 536.312 127.75 536.312 129.75C536.312 131.875 537 133.542 538.375 134.75C539.792 135.917 541.458 136.5 543.375 136.5H572.562C574.771 136.5 576.479 135.833 577.688 134.5C578.896 133.167 579.5 131.5 579.5 129.5V106.812C579.5 104.688 578.833 103 577.5 101.75C576.208 100.5 574.562 99.875 572.562 99.875H536.875V84.4375H572.562C574.812 84.4375 577.229 84.8333 579.812 85.625C582.438 86.4167 584.854 87.7083 587.062 89.5C589.312 91.25 591.188 93.5625 592.688 96.4375C594.188 99.2708 594.938 102.729 594.938 106.812V129.625ZM683.312 129.188C683.312 131.979 682.958 134.5 682.25 136.75C681.542 138.958 680.604 140.917 679.438 142.625C678.271 144.292 676.917 145.729 675.375 146.938C673.833 148.104 672.208 149.062 670.5 149.812C668.833 150.562 667.146 151.125 665.438 151.5C663.729 151.833 662.104 152 660.562 152H631.25V135.75H660.562C662.729 135.75 664.354 135.188 665.438 134.062C666.521 132.938 667.062 131.312 667.062 129.188V107.312C667.062 105.062 666.5 103.396 665.375 102.312C664.292 101.229 662.688 100.688 660.562 100.688H631.375C629.167 100.688 627.5 101.25 626.375 102.375C625.25 103.458 624.688 105.062 624.688 107.188V173.125H608.438V107.188C608.438 104.396 608.792 101.896 609.5 99.6875C610.208 97.4792 611.146 95.5417 612.312 93.875C613.521 92.1667 614.896 90.7292 616.438 89.5625C617.979 88.3542 619.583 87.375 621.25 86.625C622.958 85.875 624.667 85.3333 626.375 85C628.125 84.625 629.75 84.4375 631.25 84.4375H660.562C663.354 84.4375 665.854 84.7917 668.062 85.5C670.271 86.2083 672.208 87.1458 673.875 88.3125C675.583 89.4792 677.021 90.8333 678.188 92.375C679.396 93.9167 680.375 95.5417 681.125 97.25C681.875 98.9167 682.417 100.604 682.75 102.312C683.125 104.021 683.312 105.646 683.312 107.188V129.188ZM787.438 143.812C787.438 144.979 787.229 146.062 786.812 147.062C786.396 148.062 785.812 148.938 785.062 149.688C784.354 150.396 783.5 150.958 782.5 151.375C781.5 151.792 780.417 152 779.25 152H720.625C719.125 152 717.5 151.833 715.75 151.5C714.042 151.125 712.333 150.562 710.625 149.812C708.958 149.062 707.354 148.104 705.812 146.938C704.271 145.729 702.896 144.292 701.688 142.625C700.521 140.917 699.583 138.958 698.875 136.75C698.167 134.5 697.812 131.979 697.812 129.188V85.1875C697.812 83.6875 697.979 82.0833 698.312 80.375C698.688 78.625 699.25 76.9167 700 75.25C700.75 73.5417 701.729 71.9167 702.938 70.375C704.146 68.8333 705.583 67.4792 707.25 66.3125C708.958 65.1042 710.917 64.1458 713.125 63.4375C715.333 62.7292 717.833 62.375 720.625 62.375H786.688V78.625H720.625C718.5 78.625 716.875 79.1875 715.75 80.3125C714.625 81.4375 714.062 83.1042 714.062 85.3125V129.188C714.062 131.271 714.625 132.896 715.75 134.062C716.917 135.188 718.542 135.75 720.625 135.75H771.188V115.375H727.938V99H779.25C780.417 99 781.5 99.2292 782.5 99.6875C783.5 100.104 784.354 100.688 785.062 101.438C785.812 102.188 786.396 103.062 786.812 104.062C787.229 105.021 787.438 106.062 787.438 107.188V143.812ZM875.25 106.812C875.25 109.062 874.854 111.5 874.062 114.125C873.271 116.708 871.979 119.125 870.188 121.375C868.438 123.583 866.125 125.438 863.25 126.938C860.417 128.438 856.958 129.188 852.875 129.188H823.562V113.75H852.875C855.083 113.75 856.792 113.083 858 111.75C859.208 110.375 859.812 108.688 859.812 106.688C859.812 104.562 859.125 102.896 857.75 101.688C856.417 100.479 854.792 99.875 852.875 99.875H823.562C821.354 99.875 819.646 100.562 818.438 101.938C817.229 103.271 816.625 104.938 816.625 106.938V129.625C816.625 131.792 817.292 133.479 818.625 134.688C820 135.896 821.688 136.5 823.688 136.5H852.875V152H823.562C821.312 152 818.875 151.604 816.25 150.812C813.667 150.021 811.25 148.75 809 147C806.792 145.208 804.938 142.896 803.438 140.062C801.938 137.188 801.188 133.708 801.188 129.625V106.812C801.188 104.562 801.583 102.146 802.375 99.5625C803.167 96.9375 804.438 94.5208 806.188 92.3125C807.979 90.0625 810.292 88.1875 813.125 86.6875C816 85.1875 819.479 84.4375 823.562 84.4375H852.875C855.125 84.4375 857.542 84.8333 860.125 85.625C862.75 86.4167 865.167 87.7083 867.375 89.5C869.625 91.25 871.5 93.5625 873 96.4375C874.5 99.2708 875.25 102.729 875.25 106.812ZM955.438 129.625C955.438 131.875 955.042 134.312 954.25 136.938C953.458 139.521 952.167 141.938 950.375 144.188C948.625 146.396 946.312 148.25 943.438 149.75C940.604 151.25 937.146 152 933.062 152H903.75C901.5 152 899.062 151.604 896.438 150.812C893.854 150.021 891.438 148.75 889.188 147C886.979 145.208 885.125 142.896 883.625 140.062C882.125 137.188 881.375 133.708 881.375 129.625C881.375 127.375 881.771 124.938 882.562 122.312C883.354 119.688 884.625 117.271 886.375 115.062C888.167 112.812 890.479 110.938 893.312 109.438C896.188 107.938 899.667 107.188 903.75 107.188H933.062V122.688H903.75C901.542 122.688 899.833 123.375 898.625 124.75C897.417 126.083 896.812 127.75 896.812 129.75C896.812 131.875 897.5 133.542 898.875 134.75C900.292 135.917 901.958 136.5 903.875 136.5H933.062C935.271 136.5 936.979 135.833 938.188 134.5C939.396 133.167 940 131.5 940 129.5V106.812C940 104.688 939.333 103 938 101.75C936.708 100.5 935.062 99.875 933.062 99.875H897.375V84.4375H933.062C935.312 84.4375 937.729 84.8333 940.312 85.625C942.938 86.4167 945.354 87.7083 947.562 89.5C949.812 91.25 951.688 93.5625 953.188 96.4375C954.688 99.2708 955.438 102.729 955.438 106.812V129.625ZM1028.44 100.688H991.875C989.667 100.688 988 101.25 986.875 102.375C985.75 103.458 985.188 105.062 985.188 107.188V152H968.938V107.188C968.938 104.396 969.292 101.896 970 99.6875C970.708 97.4792 971.646 95.5417 972.812 93.875C974.021 92.1667 975.396 90.7292 976.938 89.5625C978.479 88.3542 980.083 87.375 981.75 86.625C983.458 85.875 985.167 85.3333 986.875 85C988.625 84.625 990.25 84.4375 991.75 84.4375H1028.44V100.688Z" fill="#FFA53C"/>
<rect x="8" y="7" width="200" height="200" rx="100" fill="#FFA53C"/>
<path d="M108 154.736C99.792 154.736 92.016 152.36 85.752 147.824C84.672 146.96 84.456 145.664 85.32 144.584C86.184 143.504 87.48 143.288 88.56 144.152C93.96 148.256 100.872 150.2 108 150.2C115.128 150.2 121.824 148.04 127.44 144.152C128.52 143.288 130.032 143.72 130.68 144.584C131.544 145.664 131.112 147.176 130.248 147.824C123.984 152.36 116.208 154.736 108 154.736Z" fill="#1C1C1C"/>
<path d="M108 162.512C98.928 162.512 91.584 160.352 85.752 156.032C84.672 155.168 84.456 153.872 85.32 152.792C86.184 151.712 87.48 151.496 88.56 152.36C93.744 156.032 100.008 157.76 108 157.76C115.992 157.76 122.256 156.032 127.44 152.36C128.52 151.496 130.032 151.928 130.68 152.792C131.544 153.872 131.112 155.384 130.248 156.032C124.416 160.352 117.072 162.512 108 162.512Z" fill="#1C1C1C"/>
<path d="M130.68 161.216C129.816 160.136 128.52 159.92 127.44 160.784C121.608 164.888 114.264 165.536 108 165.536C101.736 165.536 94.392 164.888 88.56 160.568C87.48 159.704 85.968 160.136 85.32 161C84.456 162.08 84.888 163.592 85.752 164.24C89.856 167.264 94.608 168.776 99.144 169.424C99.792 173.744 103.464 177.2 108 177.2C112.536 177.2 116.208 173.744 116.856 169.424C121.392 168.776 125.928 167.264 130.032 164.24C131.328 163.808 131.544 162.296 130.68 161.216ZM108 172.664C106.272 172.664 104.76 171.584 104.112 170.072C105.408 170.072 106.704 170.072 108 170.072C109.296 170.072 110.592 170.072 111.888 170.072C111.24 171.584 109.944 172.664 108 172.664Z" fill="#1C1C1C"/>
<path d="M78.408 50.624C77.976 50.624 77.328 50.408 76.896 50.192C75.816 49.328 75.6 47.816 76.464 46.952C82.944 38.744 90.288 34.208 99.792 32.48C101.088 32.264 102.384 33.128 102.6 34.424C102.816 35.72 101.952 37.016 100.656 37.232C92.448 38.744 85.968 42.632 80.136 49.976C79.92 50.192 79.272 50.624 78.408 50.624Z" fill="#1C1C1C"/>
<path d="M143.424 37.232C134.568 27.728 121.824 22.544 108 22.544C93.96 22.544 81.432 27.728 72.576 37.232C63.936 46.304 59.184 59.048 59.184 72.656C59.184 89.504 66.744 100.52 73.44 110.024C78.624 117.584 83.376 124.064 83.376 132.272C83.376 136.592 86.616 140.264 92.88 143.072C97.416 145.016 103.248 146.312 108 146.312C112.752 146.312 118.584 145.016 123.12 143.072C129.384 140.48 132.624 136.592 132.624 132.272C132.624 124.064 137.16 117.584 142.56 110.024C149.256 100.304 156.816 89.504 156.816 72.656C156.816 58.832 152.064 46.304 143.424 37.232ZM138.672 107.648C133.272 115.64 127.872 122.984 127.872 132.704C127.872 135.944 123.12 138.32 121.176 139.184C117.288 140.912 111.888 141.992 108 141.992C104.112 141.992 98.712 140.912 94.824 139.184C92.88 138.32 88.128 135.944 88.128 132.704C88.128 123.2 82.944 115.64 77.328 107.648C70.632 98.144 63.936 88.424 63.936 72.872C63.936 60.344 68.256 48.896 76.032 40.688C84.24 32.048 95.256 27.512 108.216 27.512C120.744 27.512 131.76 31.832 139.752 40.256L138.024 48.896L131.112 45.44C130.464 45.008 129.6 45.224 128.952 45.656C128.304 46.088 127.872 46.736 127.872 47.6L127.224 59.264L119.448 59.696C118.584 59.696 117.936 60.344 117.504 60.992L110.16 75.248C109.512 76.328 110.16 77.84 111.24 78.272C111.456 78.488 111.888 78.488 112.32 78.488C113.184 78.488 114.048 78.056 114.48 77.192L120.744 63.8L129.168 63.152C130.248 63.152 131.328 62.072 131.328 60.992L131.976 50.84L138.456 53.864C139.104 54.08 139.968 54.08 140.4 53.864C140.832 53.648 141.48 53 141.696 52.136L143.208 44.36C148.824 52.136 152.064 61.856 152.064 72.44C152.28 87.992 145.368 97.928 138.672 107.648Z" fill="#1C1C1C"/>
</g>
<defs>
<clipPath id="clip0_2_2">
<rect width="1061" height="214" fill="white"/>
</clipPath>
</defs>
</svg>
