<svg width="1200" height="500" viewBox="0 0 1200 500" fill="none" xmlns="http://www.w3.org/2000/svg">
<path d="M444 268.625C444 271.833 443.583 274.729 442.75 277.312C441.958 279.854 440.896 282.104 439.562 284.062C438.229 286.021 436.667 287.688 434.875 289.062C433.083 290.438 431.229 291.562 429.312 292.438C427.396 293.312 425.438 293.958 423.438 294.375C421.479 294.792 419.625 295 417.875 295H355.188V278.75H417.875C421 278.75 423.417 277.833 425.125 276C426.875 274.167 427.75 271.708 427.75 268.625C427.75 267.125 427.521 265.75 427.062 264.5C426.604 263.25 425.938 262.167 425.062 261.25C424.229 260.333 423.188 259.625 421.938 259.125C420.729 258.625 419.375 258.375 417.875 258.375H380.5C377.875 258.375 375.042 257.917 372 257C368.958 256.042 366.125 254.521 363.5 252.438C360.917 250.354 358.75 247.625 357 244.25C355.292 240.875 354.438 236.75 354.438 231.875C354.438 227 355.292 222.896 357 219.562C358.75 216.188 360.917 213.458 363.5 211.375C366.125 209.25 368.958 207.729 372 206.812C375.042 205.854 377.875 205.375 380.5 205.375H435.812V221.625H380.5C377.417 221.625 375 222.562 373.25 224.438C371.542 226.312 370.688 228.792 370.688 231.875C370.688 235 371.542 237.479 373.25 239.312C375 241.104 377.417 242 380.5 242H417.875H418C419.75 242.042 421.604 242.292 423.562 242.75C425.521 243.167 427.458 243.833 429.375 244.75C431.333 245.667 433.188 246.833 434.938 248.25C436.688 249.625 438.229 251.292 439.562 253.25C440.938 255.208 442.021 257.458 442.812 260C443.604 262.542 444 265.417 444 268.625ZM521.125 295H477.062C474.812 295 472.354 294.604 469.688 293.812C467.021 293.021 464.542 291.729 462.25 289.938C460 288.104 458.104 285.75 456.562 282.875C455.062 279.958 454.312 276.396 454.312 272.188V250.188C454.312 248.646 454.479 247.021 454.812 245.312C455.188 243.604 455.75 241.917 456.5 240.25C457.25 238.542 458.208 236.917 459.375 235.375C460.583 233.833 462.021 232.479 463.688 231.312C465.396 230.146 467.354 229.208 469.562 228.5C471.771 227.792 474.271 227.438 477.062 227.438H521.125V243.688H477.062C474.938 243.688 473.312 244.229 472.188 245.312C471.104 246.396 470.562 248.062 470.562 250.312V272.188C470.562 274.312 471.125 275.938 472.25 277.062C473.375 278.188 475.021 278.75 477.188 278.75H521.125V295ZM593.688 243.688H557.125C554.917 243.688 553.25 244.25 552.125 245.375C551 246.458 550.438 248.062 550.438 250.188V295H534.188V250.188C534.188 247.396 534.542 244.896 535.25 242.688C535.958 240.479 536.896 238.542 538.062 236.875C539.271 235.167 540.646 233.729 542.188 232.562C543.729 231.354 545.333 230.375 547 229.625C548.708 228.875 550.417 228.333 552.125 228C553.875 227.625 555.5 227.438 557 227.438H593.688V243.688ZM668.938 272.625C668.938 274.875 668.542 277.312 667.75 279.938C666.958 282.521 665.667 284.938 663.875 287.188C662.125 289.396 659.812 291.25 656.938 292.75C654.104 294.25 650.646 295 646.562 295H617.25C615 295 612.562 294.604 609.938 293.812C607.354 293.021 604.938 291.75 602.688 290C600.479 288.208 598.625 285.896 597.125 283.062C595.625 280.188 594.875 276.708 594.875 272.625C594.875 270.375 595.271 267.938 596.062 265.312C596.854 262.688 598.125 260.271 599.875 258.062C601.667 255.812 603.979 253.938 606.812 252.438C609.688 250.938 613.167 250.188 617.25 250.188H646.562V265.688H617.25C615.042 265.688 613.333 266.375 612.125 267.75C610.917 269.083 610.312 270.75 610.312 272.75C610.312 274.875 611 276.542 612.375 277.75C613.792 278.917 615.458 279.5 617.375 279.5H646.562C648.771 279.5 650.479 278.833 651.688 277.5C652.896 276.167 653.5 274.5 653.5 272.5V249.812C653.5 247.688 652.833 246 651.5 244.75C650.208 243.5 648.562 242.875 646.562 242.875H610.875V227.438H646.562C648.812 227.438 651.229 227.833 653.812 228.625C656.438 229.417 658.854 230.708 661.062 232.5C663.312 234.25 665.188 236.562 666.688 239.438C668.188 242.271 668.938 245.729 668.938 249.812V272.625ZM757.312 272.188C757.312 274.979 756.958 277.5 756.25 279.75C755.542 281.958 754.604 283.917 753.438 285.625C752.271 287.292 750.917 288.729 749.375 289.938C747.833 291.104 746.208 292.062 744.5 292.812C742.833 293.562 741.146 294.125 739.438 294.5C737.729 294.833 736.104 295 734.562 295H705.25V278.75H734.562C736.729 278.75 738.354 278.188 739.438 277.062C740.521 275.938 741.062 274.312 741.062 272.188V250.312C741.062 248.062 740.5 246.396 739.375 245.312C738.292 244.229 736.688 243.688 734.562 243.688H705.375C703.167 243.688 701.5 244.25 700.375 245.375C699.25 246.458 698.688 248.062 698.688 250.188V316.125H682.438V250.188C682.438 247.396 682.792 244.896 683.5 242.688C684.208 240.479 685.146 238.542 686.312 236.875C687.521 235.167 688.896 233.729 690.438 232.562C691.979 231.354 693.583 230.375 695.25 229.625C696.958 228.875 698.667 228.333 700.375 228C702.125 227.625 703.75 227.438 705.25 227.438H734.562C737.354 227.438 739.854 227.792 742.062 228.5C744.271 229.208 746.208 230.146 747.875 231.312C749.583 232.479 751.021 233.833 752.188 235.375C753.396 236.917 754.375 238.542 755.125 240.25C755.875 241.917 756.417 243.604 756.75 245.312C757.125 247.021 757.312 248.646 757.312 250.188V272.188ZM861.438 286.812C861.438 287.979 861.229 289.062 860.812 290.062C860.396 291.062 859.812 291.938 859.062 292.688C858.354 293.396 857.5 293.958 856.5 294.375C855.5 294.792 854.417 295 853.25 295H794.625C793.125 295 791.5 294.833 789.75 294.5C788.042 294.125 786.333 293.562 784.625 292.812C782.958 292.062 781.354 291.104 779.812 289.938C778.271 288.729 776.896 287.292 775.688 285.625C774.521 283.917 773.583 281.958 772.875 279.75C772.167 277.5 771.812 274.979 771.812 272.188V228.188C771.812 226.688 771.979 225.083 772.312 223.375C772.688 221.625 773.25 219.917 774 218.25C774.75 216.542 775.729 214.917 776.938 213.375C778.146 211.833 779.583 210.479 781.25 209.312C782.958 208.104 784.917 207.146 787.125 206.438C789.333 205.729 791.833 205.375 794.625 205.375H860.688V221.625H794.625C792.5 221.625 790.875 222.188 789.75 223.312C788.625 224.438 788.062 226.104 788.062 228.312V272.188C788.062 274.271 788.625 275.896 789.75 277.062C790.917 278.188 792.542 278.75 794.625 278.75H845.188V258.375H801.938V242H853.25C854.417 242 855.5 242.229 856.5 242.688C857.5 243.104 858.354 243.688 859.062 244.438C859.812 245.188 860.396 246.062 860.812 247.062C861.229 248.021 861.438 249.062 861.438 250.188V286.812ZM949.25 249.812C949.25 252.062 948.854 254.5 948.062 257.125C947.271 259.708 945.979 262.125 944.188 264.375C942.438 266.583 940.125 268.438 937.25 269.938C934.417 271.438 930.958 272.188 926.875 272.188H897.562V256.75H926.875C929.083 256.75 930.792 256.083 932 254.75C933.208 253.375 933.812 251.688 933.812 249.688C933.812 247.562 933.125 245.896 931.75 244.688C930.417 243.479 928.792 242.875 926.875 242.875H897.562C895.354 242.875 893.646 243.562 892.438 244.938C891.229 246.271 890.625 247.938 890.625 249.938V272.625C890.625 274.792 891.292 276.479 892.625 277.688C894 278.896 895.688 279.5 897.688 279.5H926.875V295H897.562C895.312 295 892.875 294.604 890.25 293.812C887.667 293.021 885.25 291.75 883 290C880.792 288.208 878.938 285.896 877.438 283.062C875.938 280.188 875.188 276.708 875.188 272.625V249.812C875.188 247.562 875.583 245.146 876.375 242.562C877.167 239.938 878.438 237.521 880.188 235.312C881.979 233.062 884.292 231.188 887.125 229.688C890 228.188 893.479 227.438 897.562 227.438H926.875C929.125 227.438 931.542 227.833 934.125 228.625C936.75 229.417 939.167 230.708 941.375 232.5C943.625 234.25 945.5 236.562 947 239.438C948.5 242.271 949.25 245.729 949.25 249.812ZM1029.44 272.625C1029.44 274.875 1029.04 277.312 1028.25 279.938C1027.46 282.521 1026.17 284.938 1024.38 287.188C1022.62 289.396 1020.31 291.25 1017.44 292.75C1014.6 294.25 1011.15 295 1007.06 295H977.75C975.5 295 973.062 294.604 970.438 293.812C967.854 293.021 965.438 291.75 963.188 290C960.979 288.208 959.125 285.896 957.625 283.062C956.125 280.188 955.375 276.708 955.375 272.625C955.375 270.375 955.771 267.938 956.562 265.312C957.354 262.688 958.625 260.271 960.375 258.062C962.167 255.812 964.479 253.938 967.312 252.438C970.188 250.938 973.667 250.188 977.75 250.188H1007.06V265.688H977.75C975.542 265.688 973.833 266.375 972.625 267.75C971.417 269.083 970.812 270.75 970.812 272.75C970.812 274.875 971.5 276.542 972.875 277.75C974.292 278.917 975.958 279.5 977.875 279.5H1007.06C1009.27 279.5 1010.98 278.833 1012.19 277.5C1013.4 276.167 1014 274.5 1014 272.5V249.812C1014 247.688 1013.33 246 1012 244.75C1010.71 243.5 1009.06 242.875 1007.06 242.875H971.375V227.438H1007.06C1009.31 227.438 1011.73 227.833 1014.31 228.625C1016.94 229.417 1019.35 230.708 1021.56 232.5C1023.81 234.25 1025.69 236.562 1027.19 239.438C1028.69 242.271 1029.44 245.729 1029.44 249.812V272.625ZM1102.44 243.688H1065.88C1063.67 243.688 1062 244.25 1060.88 245.375C1059.75 246.458 1059.19 248.062 1059.19 250.188V295H1042.94V250.188C1042.94 247.396 1043.29 244.896 1044 242.688C1044.71 240.479 1045.65 238.542 1046.81 236.875C1048.02 235.167 1049.4 233.729 1050.94 232.562C1052.48 231.354 1054.08 230.375 1055.75 229.625C1057.46 228.875 1059.17 228.333 1060.88 228C1062.62 227.625 1064.25 227.438 1065.75 227.438H1102.44V243.688Z" fill="#FFA53C"/>
<rect x="82" y="150" width="200" height="200" rx="100" fill="#FFA53C"/>
<path d="M182 297.736C173.792 297.736 166.016 295.36 159.752 290.824C158.672 289.96 158.456 288.664 159.32 287.584C160.184 286.504 161.48 286.288 162.56 287.152C167.96 291.256 174.872 293.2 182 293.2C189.128 293.2 195.824 291.04 201.44 287.152C202.52 286.288 204.032 286.72 204.68 287.584C205.544 288.664 205.112 290.176 204.248 290.824C197.984 295.36 190.208 297.736 182 297.736Z" fill="#1C1C1C"/>
<path d="M182 305.512C172.928 305.512 165.584 303.352 159.752 299.032C158.672 298.168 158.456 296.872 159.32 295.792C160.184 294.712 161.48 294.496 162.56 295.36C167.744 299.032 174.008 300.76 182 300.76C189.992 300.76 196.256 299.032 201.44 295.36C202.52 294.496 204.032 294.928 204.68 295.792C205.544 296.872 205.112 298.384 204.248 299.032C198.416 303.352 191.072 305.512 182 305.512Z" fill="#1C1C1C"/>
<path d="M204.68 304.216C203.816 303.136 202.52 302.92 201.44 303.784C195.608 307.888 188.264 308.536 182 308.536C175.736 308.536 168.392 307.888 162.56 303.568C161.48 302.704 159.968 303.136 159.32 304C158.456 305.08 158.888 306.592 159.752 307.24C163.856 310.264 168.608 311.776 173.144 312.424C173.792 316.744 177.464 320.2 182 320.2C186.536 320.2 190.208 316.744 190.856 312.424C195.392 311.776 199.928 310.264 204.032 307.24C205.328 306.808 205.544 305.296 204.68 304.216ZM182 315.664C180.272 315.664 178.76 314.584 178.112 313.072C179.408 313.072 180.704 313.072 182 313.072C183.296 313.072 184.592 313.072 185.888 313.072C185.24 314.584 183.944 315.664 182 315.664Z" fill="#1C1C1C"/>
<path d="M152.408 193.624C151.976 193.624 151.328 193.408 150.896 193.192C149.816 192.328 149.6 190.816 150.464 189.952C156.944 181.744 164.288 177.208 173.792 175.48C175.088 175.264 176.384 176.128 176.6 177.424C176.816 178.72 175.952 180.016 174.656 180.232C166.448 181.744 159.968 185.632 154.136 192.976C153.92 193.192 153.272 193.624 152.408 193.624Z" fill="#1C1C1C"/>
<path d="M217.424 180.232C208.568 170.728 195.824 165.544 182 165.544C167.96 165.544 155.432 170.728 146.576 180.232C137.936 189.304 133.184 202.048 133.184 215.656C133.184 232.504 140.744 243.52 147.44 253.024C152.624 260.584 157.376 267.064 157.376 275.272C157.376 279.592 160.616 283.264 166.88 286.072C171.416 288.016 177.248 289.312 182 289.312C186.752 289.312 192.584 288.016 197.12 286.072C203.384 283.48 206.624 279.592 206.624 275.272C206.624 267.064 211.16 260.584 216.56 253.024C223.256 243.304 230.816 232.504 230.816 215.656C230.816 201.832 226.064 189.304 217.424 180.232ZM212.672 250.648C207.272 258.64 201.872 265.984 201.872 275.704C201.872 278.944 197.12 281.32 195.176 282.184C191.288 283.912 185.888 284.992 182 284.992C178.112 284.992 172.712 283.912 168.824 282.184C166.88 281.32 162.128 278.944 162.128 275.704C162.128 266.2 156.944 258.64 151.328 250.648C144.632 241.144 137.936 231.424 137.936 215.872C137.936 203.344 142.256 191.896 150.032 183.688C158.24 175.048 169.256 170.512 182.216 170.512C194.744 170.512 205.76 174.832 213.752 183.256L212.024 191.896L205.112 188.44C204.464 188.008 203.6 188.224 202.952 188.656C202.304 189.088 201.872 189.736 201.872 190.6L201.224 202.264L193.448 202.696C192.584 202.696 191.936 203.344 191.504 203.992L184.16 218.248C183.512 219.328 184.16 220.84 185.24 221.272C185.456 221.488 185.888 221.488 186.32 221.488C187.184 221.488 188.048 221.056 188.48 220.192L194.744 206.8L203.168 206.152C204.248 206.152 205.328 205.072 205.328 203.992L205.976 193.84L212.456 196.864C213.104 197.08 213.968 197.08 214.4 196.864C214.832 196.648 215.48 196 215.696 195.136L217.208 187.36C222.824 195.136 226.064 204.856 226.064 215.44C226.28 230.992 219.368 240.928 212.672 250.648Z" fill="#1C1C1C"/>
</svg>
